<svg width="40" height="40" viewBox="0 0 40 40" fill="none" xmlns="http://www.w3.org/2000/svg">
<path opacity="0.1" fill-rule="evenodd" clip-rule="evenodd" d="M19.6144 0C30.4476 0 39.2289 8.78129 39.2289 19.6144C39.2289 30.4476 30.4476 39.2289 19.6144 39.2289C8.78129 39.2289 0 30.4476 0 19.6144C0 8.78129 8.78129 0 19.6144 0Z" fill="white"/>
<path fill-rule="evenodd" clip-rule="evenodd" d="M16.7813 30.1785C16.7813 30.3294 16.9039 30.452 17.0548 30.452H20.9547C21.1057 30.452 21.2275 30.3294 21.2275 30.1785V19.5078H24.0547C24.1965 19.5078 24.3152 19.399 24.3267 19.2572L24.5987 16.0423C24.602 16.0046 24.5974 15.9666 24.5852 15.9308C24.573 15.895 24.5535 15.8621 24.5279 15.8342C24.5023 15.8063 24.4713 15.7841 24.4366 15.7689C24.402 15.7536 24.3646 15.7458 24.3267 15.7458H21.2275V13.4648C21.2275 12.93 21.6612 12.4971 22.196 12.4971H24.3742C24.5259 12.4971 24.6478 12.3745 24.6478 12.2236V9.0079C24.6478 8.85697 24.5259 8.73438 24.3742 8.73438H20.6935C18.5328 8.73438 16.7813 10.4859 16.7813 12.6458V15.7458H14.8321C14.6812 15.7458 14.5586 15.8684 14.5586 16.0193V19.2342C14.5586 19.3859 14.6812 19.5078 14.8321 19.5078H16.7813V30.1785Z" fill="white"/>
</svg>
