<svg width="40" height="40" viewBox="0 0 40 40" fill="none" xmlns="http://www.w3.org/2000/svg">
<path opacity="0.1" fill-rule="evenodd" clip-rule="evenodd" d="M19.6144 0C30.4476 0 39.2289 8.78129 39.2289 19.6144C39.2289 30.4476 30.4476 39.2289 19.6144 39.2289C8.78129 39.2289 0 30.4476 0 19.6144C0 8.78129 8.78129 0 19.6144 0Z" fill="white"/>
<path d="M27.7708 16.2366C27.7324 15.3654 27.5915 14.7665 27.3896 14.2475C27.1813 13.6966 26.861 13.2034 26.4413 12.7933C26.0311 12.3769 25.5346 12.0534 24.99 11.8484C24.4679 11.6466 23.8719 11.5057 23.0006 11.4673C22.1227 11.4256 21.844 11.416 19.6174 11.416C17.3909 11.416 17.1122 11.4256 16.2375 11.4641C15.3662 11.5025 14.7671 11.6435 14.2482 11.8452C13.697 12.0534 13.2037 12.3737 12.7936 12.7933C12.3771 13.2033 12.0536 13.6998 11.8485 14.2443C11.6467 14.7665 11.5058 15.3622 11.4673 16.2334C11.4257 17.1111 11.416 17.3897 11.416 19.6159C11.416 21.842 11.4257 22.1207 11.4641 22.9951C11.5025 23.8663 11.6435 24.4652 11.8454 24.9843C12.0536 25.5352 12.3771 26.0284 12.7936 26.4384C13.2037 26.8548 13.7003 27.1784 14.2449 27.3833C14.7671 27.5851 15.3629 27.726 16.2344 27.7644C17.1089 27.803 17.3878 27.8125 19.6143 27.8125C21.8409 27.8125 22.1196 27.803 22.9942 27.7644C23.8656 27.726 24.4646 27.5851 24.9836 27.3833C25.5286 27.1726 26.0236 26.8504 26.4369 26.4372C26.8501 26.0241 27.1725 25.5292 27.3832 24.9843C27.5849 24.4621 27.726 23.8663 27.7644 22.9951C27.8028 22.1207 27.8125 21.842 27.8125 19.6159C27.8125 17.3897 27.8092 17.1111 27.7708 16.2366ZM26.294 22.931C26.2587 23.7318 26.1242 24.1642 26.012 24.4525C25.7364 25.1668 25.1694 25.7337 24.455 26.0093C24.1666 26.1214 23.731 26.2559 22.9332 26.291C22.0682 26.3296 21.8088 26.339 19.6207 26.339C17.4325 26.339 17.1699 26.3296 16.308 26.291C15.5071 26.2559 15.0746 26.1214 14.7862 26.0093C14.4307 25.8779 14.1071 25.6697 13.8444 25.3974C13.5721 25.1316 13.3639 24.8112 13.2325 24.4558C13.1203 24.1675 12.9858 23.7318 12.9507 22.9343C12.9121 22.0695 12.9026 21.81 12.9026 19.6222C12.9026 17.4345 12.9121 17.1719 12.9507 16.3103C12.9858 15.5096 13.1203 15.0772 13.2325 14.7889C13.3639 14.4333 13.5721 14.1098 13.8477 13.8471C14.1135 13.5748 14.4338 13.3666 14.7895 13.2354C15.0778 13.1233 15.5136 12.9888 16.3113 12.9535C17.1763 12.9151 17.4358 12.9054 19.6238 12.9054C21.8152 12.9054 22.0746 12.9151 22.9365 12.9535C23.7374 12.9888 24.1699 13.1233 24.4582 13.2354C24.8138 13.3666 25.1374 13.5748 25.4001 13.8471C25.6724 14.113 25.8806 14.4333 26.012 14.7889C26.1242 15.0772 26.2587 15.5127 26.2939 16.3103C26.3324 17.1752 26.342 17.4345 26.342 19.6222C26.342 21.81 26.3324 22.0662 26.294 22.931Z" fill="white"/>
<path d="M19.5715 15.4273C17.2418 15.4273 15.3516 17.3012 15.3516 19.6112C15.3516 21.9212 17.2418 23.7951 19.5715 23.7951C21.9012 23.7951 23.7914 21.9212 23.7914 19.6112C23.7914 17.3012 21.9012 15.4273 19.5715 15.4273ZM19.5715 22.3252C18.0601 22.3252 16.8341 21.1098 16.8341 19.6112C16.8341 18.1126 18.0601 16.8972 19.5714 16.8972C21.083 16.8972 22.3088 18.1126 22.3088 19.6112C22.3088 21.1098 21.0829 22.3252 19.5715 22.3252ZM24.9435 15.2619C24.9435 15.8013 24.5023 16.2386 23.9582 16.2386C23.4141 16.2386 22.973 15.8013 22.973 15.2619C22.973 14.7224 23.4141 14.2852 23.9582 14.2852C24.5023 14.2852 24.9435 14.7223 24.9435 15.2619Z" fill="white"/>
</svg>
