<svg width="40" height="40" viewBox="0 0 40 40" fill="none" xmlns="http://www.w3.org/2000/svg">
<path fill-rule="evenodd" clip-rule="evenodd" d="M19.6144 0C30.4476 0 39.2289 8.78129 39.2289 19.6144C39.2289 30.4476 30.4476 39.2289 19.6144 39.2289C8.78129 39.2289 0 30.4476 0 19.6144C0 8.78129 8.78129 0 19.6144 0Z" fill="#FF7F0E"/>
<path d="M28.6256 28.6256V22.0143C28.6256 18.765 27.9261 16.283 24.1353 16.283C22.3076 16.283 21.0892 17.2758 20.5927 18.2235H20.5476V16.5763H16.9599V28.6256H20.7056V22.6461C20.7056 21.0666 20.9989 19.5548 22.9394 19.5548C24.8574 19.5548 24.88 21.3374 24.88 22.7364V28.6031H28.6256V28.6256ZM10.8676 16.5763H14.6132V28.6256H10.8676V16.5763ZM12.7404 10.5742C11.5445 10.5742 10.5742 11.5445 10.5742 12.7404C10.5742 13.9363 11.5445 14.9291 12.7404 14.9291C13.9363 14.9291 14.9066 13.9363 14.9066 12.7404C14.9066 11.5445 13.9363 10.5742 12.7404 10.5742Z" fill="white"/>
</svg>
