<svg width="40" height="40" viewBox="0 0 40 40" fill="none" xmlns="http://www.w3.org/2000/svg">
<path opacity="0.1" fill-rule="evenodd" clip-rule="evenodd" d="M19.6144 0C30.4476 0 39.2289 8.78129 39.2289 19.6144C39.2289 30.4476 30.4476 39.2289 19.6144 39.2289C8.78129 39.2289 0 30.4476 0 19.6144C0 8.78129 8.78129 0 19.6144 0Z" fill="white"/>
<path d="M28.9979 13.8309C28.3014 14.1365 27.5592 14.339 26.7854 14.4373C27.5815 13.962 28.189 13.2152 28.4747 12.3149C27.7325 12.7574 26.913 13.07 26.0397 13.2444C25.335 12.494 24.3306 12.0293 23.2348 12.0293C21.1089 12.0293 19.3975 13.7548 19.3975 15.8702C19.3975 16.1746 19.4232 16.4672 19.4864 16.7458C16.2941 16.5901 13.4693 15.0601 11.5717 12.7293C11.2404 13.3041 11.0461 13.962 11.0461 14.6703C11.0461 16.0001 11.7309 17.179 12.7517 17.8615C12.1348 17.8498 11.5295 17.6706 11.0168 17.3885V17.4307C11.0168 19.2967 12.3478 20.8466 14.0933 21.2037C13.7807 21.2891 13.44 21.3301 13.0865 21.3301C12.8407 21.3301 12.5925 21.316 12.3595 21.2645C12.8571 22.7852 14.2689 23.9032 15.9476 23.9395C14.6411 24.9614 12.9823 25.5772 11.1865 25.5772C10.8716 25.5772 10.5696 25.5632 10.2676 25.5245C11.9685 26.6214 13.9844 27.2477 16.1583 27.2477C23.2243 27.2477 27.0874 21.3945 27.0874 16.3209C27.0874 16.1511 27.0816 15.9873 27.0734 15.8245C27.8355 15.2837 28.4758 14.6082 28.9979 13.8309Z" fill="white"/>
</svg>
